<svg xmlns="http://www.w3.org/2000/svg" width="106.89" height="75.83" viewBox="0 0 106.89 75.83">
  <g id="a9b21062-74a8-49da-bd9c-404350644b0d" data-name="Capa 2">
    <g id="a28a722b-9bbf-4db3-8196-4144f3748869" data-name="Capa 1">
      <g>
        <text transform="translate(20.77 69.39)" style="font-size: 17.104299545288086px;fill: red;font-family: Arial-BoldMT, Arial;font-weight: 700;letter-spacing: 0.10602460262686283em">S.R.L.</text>
        <g>
          <g>
            <polygon points="106.89 0 56.94 0 37.19 44.99 87.14 44.99 106.89 0" style="fill: red"/>
            <path d="M92.54,18.09a12,12,0,0,1-2.39,2.69c.44,1.42,0,3.56-1.29,6.4L87,31.39a26.13,26.13,0,0,1-2.43,4.4,12.34,12.34,0,0,1-2.69,2.82,9.39,9.39,0,0,1-3.28,1.52,17.58,17.58,0,0,1-4.21.45H48.67A1.07,1.07,0,0,1,47.62,40a1.54,1.54,0,0,1,.13-1.39L62.2,6.35A3.34,3.34,0,0,1,63.31,5a2.51,2.51,0,0,1,1.51-.55H90.47a13.12,13.12,0,0,1,3.82.45,3.06,3.06,0,0,1,2,1.52,4.39,4.39,0,0,1,.17,2.85A20.66,20.66,0,0,1,94.9,13.6l-.36.77A24.59,24.59,0,0,1,92.54,18.09Zm-9.9,6.05c0-.28-.15-.44-.49-.48H61.91L56.86,35H76.57a2,2,0,0,0,1.3-.38,5.4,5.4,0,0,0,1-1.67l3.24-7.26A5.58,5.58,0,0,0,82.64,24.14Zm2.76-6.43a6,6,0,0,0,1-1.71l1.78-3.94a3.72,3.72,0,0,0,.5-1.7c-.06-.27-.37-.4-1-.4H68.07L64.46,18.1H84.12A1.83,1.83,0,0,0,85.4,17.71Z" style="fill: #ff0"/>
          </g>
          <path d="M33.57,23.59H26.21c-.5,0-.81-.18-.93-.55a2,2,0,0,1,.23-1.39L26.44,20a3.42,3.42,0,0,1,1.21-1.38A2.81,2.81,0,0,1,29.26,18H42a.89.89,0,0,1,1,.54A1.75,1.75,0,0,1,42.71,20L36.5,31.43a31,31,0,0,1-2.79,4.38,13.09,13.09,0,0,1-2.89,2.8,10,10,0,0,1-3.36,1.52,17.53,17.53,0,0,1-4.17.45H5.66A11.87,11.87,0,0,1,2,40.12,2.63,2.63,0,0,1,.18,38.61,4.43,4.43,0,0,1,.29,35.8a24,24,0,0,1,1.94-4.39l9.65-17.83a32.5,32.5,0,0,1,2.78-4.36,13,13,0,0,1,2.93-2.84A10.27,10.27,0,0,1,21,4.86a17.41,17.41,0,0,1,4.17-.45H49.34a.9.9,0,0,1,.93.55,1.54,1.54,0,0,1-.2,1.32l0,.13-.93,1.68a4.84,4.84,0,0,1-1.31,1.32A2.59,2.59,0,0,1,46.3,10H22.43a1.91,1.91,0,0,0-1.29.39A6.67,6.67,0,0,0,20,12L8.7,33a3.57,3.57,0,0,0-.63,1.68c0,.25.34.38.87.38H26a2.16,2.16,0,0,0,1.34-.38A5.93,5.93,0,0,0,28.53,33Z" style="fill: red"/>
        </g>
      </g>
    </g>
  </g>
</svg>
